<svg xmlns="http://www.w3.org/2000/svg" width="256" height="256" viewBox="0 0 100 100"><rect width="100" height="100" rx="20" fill="#b669ff"></rect><path d="M16.22 73.03Q12.50 73.03 9.50 71.20Q6.50 69.36 4.77 65.88Q3.05 62.39 3.05 57.64L3.05 57.64Q3.05 49.43 6.56 42.44Q10.07 35.45 16.92 31.21Q23.78 26.97 33.39 26.97L33.39 26.97Q35.88 26.97 38.71 27.35Q41.55 27.73 43.87 28.48L43.87 28.48Q45.38 28.91 45.38 30.64L45.38 30.64Q45.38 32.05 44.33 33.29Q43.28 34.53 41.87 34.53L41.87 34.53Q41.44 34.53 41.22 34.48L41.22 34.48Q38.42 33.83 36.42 33.53Q34.42 33.23 32.21 33.23L32.21 33.23Q25.35 33.23 20.54 36.55Q15.74 39.88 13.36 45.33Q10.98 50.78 10.98 57.10L10.98 57.10Q10.98 61.69 12.79 64.20Q14.60 66.71 17.52 66.71L17.52 66.71Q20.81 66.71 23.30 64.01Q25.78 61.31 27.83 55.27Q29.88 49.22 31.88 38.85L31.88 38.85Q32.21 37.34 33.18 36.80Q34.15 36.26 35.77 36.26L35.77 36.26Q39.60 36.26 39.60 38.74L39.60 38.74Q39.60 39.17 39.44 39.82L39.44 39.82Q38.04 45.06 36.88 51.40Q35.72 57.75 35.72 61.04L35.72 61.04Q35.72 63.96 36.58 65.28Q37.44 66.61 39.23 66.61L39.23 66.61Q40.95 66.61 42.52 65.44Q44.09 64.28 46.46 61.48L46.46 61.48Q47.11 60.72 47.92 60.72L47.92 60.72Q48.62 60.72 49.03 61.37Q49.43 62.02 49.43 63.15L49.43 63.15Q49.43 65.26 48.41 66.50L48.41 66.50Q45.76 69.68 43.22 71.36Q40.68 73.03 37.01 73.03L37.01 73.03Q33.23 73.03 30.91 70.84Q28.59 68.66 27.99 64.66L27.99 64.66Q24.00 73.03 16.22 73.03L16.22 73.03ZM95.44 60.72Q96.14 60.72 96.55 61.37Q96.95 62.02 96.95 63.15L96.95 63.15Q96.95 65.26 95.93 66.50L95.93 66.50Q93.34 69.63 90.69 71.33Q88.04 73.03 84.42 73.03L84.42 73.03Q80.91 73.03 78.46 71.14Q76.00 69.25 73.79 64.66L73.79 64.66Q72.00 60.99 70.98 59.23Q69.95 57.48 68.95 56.72Q67.95 55.97 66.50 55.81L66.50 55.81Q66.28 56.94 65.25 62.93L65.25 62.93Q64.82 65.63 64.72 66.23L64.72 66.23Q64.17 69.52 62.55 71.28Q60.94 73.03 57.64 73.03L57.64 73.03Q54.02 73.03 51.24 70.90Q48.46 68.77 46.95 64.96Q45.44 61.15 45.44 56.29L45.44 56.29Q45.44 47.22 48.60 40.63Q51.75 34.04 57.45 30.56Q63.15 27.08 70.60 27.08L70.60 27.08Q75.78 27.08 79.30 28.64Q82.81 30.21 84.51 32.96Q86.21 35.72 86.21 39.17L86.21 39.17Q86.21 42.20 84.78 45.09Q83.34 47.98 80.48 50.19Q77.62 52.40 73.52 53.48L73.52 53.48Q76.11 54.19 77.51 55.75Q78.92 57.32 80.32 60.34L80.32 60.34Q81.83 63.58 83.32 65.09Q84.80 66.61 86.75 66.61L86.75 66.61Q88.47 66.61 90.04 65.44Q91.61 64.28 93.98 61.48L93.98 61.48Q94.63 60.72 95.44 60.72L95.44 60.72ZM57.59 63.85L59.05 55.75Q57.21 55.75 56.53 54.89Q55.86 54.02 55.86 52.94L55.86 52.94Q55.86 51.65 56.70 50.89Q57.53 50.14 58.61 50.14L58.61 50.14L59.96 50.14Q60.83 44.84 61.58 41.01L61.58 41.01Q62.28 37.50 66.12 37.50L66.12 37.50Q69.20 37.50 69.20 40.25L69.20 40.25Q69.20 40.85 69.14 41.17L69.14 41.17L67.52 50.14Q70.44 49.97 72.84 48.73Q75.25 47.49 76.68 45.28Q78.11 43.06 78.11 40.25L78.11 40.25Q78.11 36.85 75.78 34.91Q73.46 32.96 68.98 32.96L68.98 32.96Q63.69 32.96 59.72 35.58Q55.75 38.20 53.54 43.36Q51.32 48.52 51.32 55.91L51.32 55.91Q51.32 59.37 52.02 61.85Q52.73 64.34 53.75 65.58Q54.78 66.82 55.70 66.82L55.70 66.82Q56.40 66.82 56.86 66.12Q57.32 65.42 57.59 63.85L57.59 63.85Z" fill="#ffffff"></path></svg>